<?xml version="1.0" encoding="utf-8"?>
<!-- Generator: Adobe Illustrator 24.3.0, SVG Export Plug-In . SVG Version: 6.00 Build 0)  -->
<svg version="1.1" id="Capa_1" xmlns="http://www.w3.org/2000/svg" xmlns:xlink="http://www.w3.org/1999/xlink" x="0px" y="0px"
	 viewBox="0 0 71 17.3" style="enable-background:new 0 0 71 17.3;" xml:space="preserve">
<style type="text/css">
	.st0{fill:#002C4F;}
	.st1{fill:#56AAC9;}
</style>
<path class="st0" d="M3.8,5.7h2.1l2,5l2-5H12v7.3h-1.8V8.6l-1.6,4.3H7.2L5.5,8.6v4.4H3.8V5.7z"/>
<path class="st0" d="M15.9,13c-1.6,0.1-2.9-1.1-3-2.6c0-0.1,0-0.2,0-0.4c-0.1-1.6,1.1-2.9,2.7-3c0.1,0,0.2,0,0.3,0
	c1.6-0.1,2.9,1.1,3,2.7c0,0.1,0,0.2,0,0.3c0.1,1.6-1.1,2.9-2.7,3C16.1,13,16,13,15.9,13z M15.9,11.5c0.7,0,1.2-0.6,1.2-1.3
	c0-0.1,0-0.1,0-0.2c0-1-0.6-1.4-1.2-1.4S14.7,9,14.7,10S15.2,11.5,15.9,11.5z"/>
<path class="st0" d="M19.8,5.3h1.8v7.7h-1.8V5.3z"/>
<path class="st0" d="M22.9,5.3h1.8v7.7h-1.8V5.3z"/>
<g>
	<path class="st0" d="M29.9,7.1V8c-0.4-0.6-1.1-0.9-1.8-0.9c-0.1,0-0.1,0-0.2,0c-1.5,0.2-2.5,1.5-2.4,2.9c0,1.8,1.1,3,2.5,3
		c0.7,0,1.4-0.3,1.8-0.9v0.8h1.8V7.1H29.9z M28.7,11.4c0,0-0.1,0-0.1,0c-0.7-0.1-1.2-0.7-1.2-1.4c0,0,0-0.1,0-0.1
		c0-0.7,0.6-1.3,1.3-1.3c0,0,0,0,0,0h0c0,0,0,0,0,0c0,0,0.1,0,0.1,0c0.7,0.1,1.2,0.7,1.2,1.4c0,0,0,0.1,0,0.1
		C29.9,10.9,29.4,11.4,28.7,11.4z"/>
	<polygon class="st0" points="28.7,8.6 28.7,8.6 28.7,8.6 	"/>
</g>
<polygon class="st0" points="30.1,5.5 30.1,6.7 27.6,5.7 27.6,4.3 "/>
<path class="st1" d="M33.1,5.8h1l2.7,5.9l2.7-5.9h1v7.2h-0.9V7.6l-2.4,5.3h-0.7l-2.4-5.4v5.3h-0.9L33.1,5.8z"/>
<path class="st1" d="M44.4,7.2c0.9,0,1.7,0.4,2.1,1.1v-1h1v5.7h-1v-1.1C46,12.6,45.2,13,44.3,13c-1.5,0-2.7-1.3-2.7-2.8
	c0-0.1,0-0.1,0-0.2c-0.1-1.5,1-2.8,2.5-2.9C44.2,7.2,44.3,7.1,44.4,7.2z M44.5,8c-1.1,0-1.9,0.8-1.9,1.9c0,0.1,0,0.1,0,0.2
	c-0.1,1.1,0.7,2,1.7,2.1c1.1,0.1,2-0.7,2.1-1.7c0-0.1,0-0.3,0-0.4c0.1-1.1-0.7-2-1.8-2.1C44.6,8,44.6,8,44.5,8L44.5,8z"/>
<path class="st1" d="M50,12.9h-1V7.2h1v0.9c0.4-0.7,1.1-1.1,1.8-1v1h-0.2c-0.9,0-1.6,0.4-1.6,1.7V12.9z"/>
<path class="st1" d="M52.9,5.3h0.9v4.5L56,7.2h1.3l-2.7,2.8l2.7,2.9H56l-2.2-2.5v2.5h-0.9L52.9,5.3z"/>
<path class="st1" d="M60.7,13c-1.5,0-2.8-1.1-2.8-2.7c0-0.1,0-0.2,0-0.3c-0.1-1.5,1-2.8,2.5-2.9c0.1,0,0.2,0,0.3,0
	c1.4-0.1,2.7,1,2.7,2.5c0,0.1,0,0.2,0,0.2c0,0.2,0,0.4,0,0.6h-4.6c0,1,0.8,1.8,1.8,1.8c0,0,0,0,0.1,0c0.7,0.1,1.3-0.3,1.6-1h1
	C62.9,12.3,61.8,13.1,60.7,13z M58.8,9.7h3.6c0-0.9-0.7-1.7-1.6-1.7c-0.1,0-0.1,0-0.2,0C59.6,7.9,58.8,8.7,58.8,9.7z"/>
<path class="st1" d="M64.8,8h-0.7V7.2h0.7V5.8h0.9v1.4h1.5V8h-1.5v3.3c0,0.6,0.2,0.8,0.8,0.8h0.7v0.8h-0.8c-1,0-1.6-0.4-1.6-1.6
	L64.8,8z"/>
</svg>
