<svg id="Capa_1" data-name="Capa 1" xmlns="http://www.w3.org/2000/svg" viewBox="0 0 71 17.33"><defs><style>.cls-1{fill:#002c4f;}.cls-2{fill:#56aac9;}</style></defs><title>logo-MollaMarket</title><path class="cls-1" d="M3.76,5.65H5.85l2,5,2-5H12v7.26H10.22V8.56L8.59,12.91H7.17L5.53,8.55v4.37H3.76Z"/><path class="cls-1" d="M15.88,13a2.83,2.83,0,0,1-3-3,2.85,2.85,0,0,1,3-3,2.85,2.85,0,0,1,3,3A2.86,2.86,0,0,1,15.88,13Zm0-1.53A1.26,1.26,0,0,0,17.1,10c0-1-.58-1.44-1.2-1.44S14.7,9,14.7,10,15.24,11.47,15.88,11.47Z"/><path class="cls-1" d="M19.84,5.26h1.77v7.66H19.84Z"/><path class="cls-1" d="M22.89,5.26h1.77v7.66H22.89Z"/><path class="cls-1" d="M28.14,7.06a2,2,0,0,1,1.78.9V7.14h1.77v5.77H29.92V12.1a2,2,0,0,1-1.79.9c-1.41,0-2.53-1.16-2.53-3A2.66,2.66,0,0,1,28.14,7.06Zm.52,1.54A1.29,1.29,0,0,0,27.39,10a1.3,1.3,0,0,0,1.26,1.44A1.29,1.29,0,0,0,29.92,10,1.29,1.29,0,0,0,28.65,8.6Zm1.4-4.27V5.7l-2.49,1V5.53Z"/><path class="cls-2" d="M33.12,5.75h1l2.65,5.92,2.65-5.92h1v7.16h-.94V7.58l-2.38,5.34h-.66L34.06,7.56v5.35h-.94Z"/><path class="cls-2" d="M44.36,7.15a2.35,2.35,0,0,1,2.11,1.13v-1h1v5.67h-1V11.86A2.37,2.37,0,0,1,44.35,13a2.73,2.73,0,0,1-2.68-2.95A2.69,2.69,0,0,1,44.36,7.15Zm.19.82a1.91,1.91,0,0,0-1.91,2.09,1.93,1.93,0,1,0,3.84,0A1.94,1.94,0,0,0,44.55,8Z"/><path class="cls-2" d="M50,12.91H49V7.24H50v.92a1.91,1.91,0,0,1,1.83-1v1h-.25c-.9,0-1.58.4-1.58,1.72Z"/><path class="cls-2" d="M52.87,5.26h.94v4.5L56,7.24h1.31l-2.67,2.82,2.68,2.85H56l-2.22-2.5v2.5h-.94Z"/><path class="cls-2" d="M60.65,13a2.73,2.73,0,0,1-2.8-2.94,2.7,2.7,0,0,1,2.8-2.92,2.6,2.6,0,0,1,2.72,2.71,5.15,5.15,0,0,1,0,.57H58.81a1.78,1.78,0,0,0,1.84,1.78,1.56,1.56,0,0,0,1.59-1h1A2.55,2.55,0,0,1,60.65,13ZM58.82,9.66H62.4a1.66,1.66,0,0,0-1.79-1.72A1.76,1.76,0,0,0,58.82,9.66Z"/><path class="cls-2" d="M64.82,8h-.74V7.24h.74V5.82h.94V7.24h1.48V8H65.76v3.34c0,.56.21.76.79.76h.69v.8h-.85c-1,0-1.57-.41-1.57-1.55Z"/></svg>